<svg viewBox="0 0 100 100"><symbol viewBox="0 0 32 32" id="icon-android"><title>android</title> <path d="M28 12c-1.1 0-2 0.9-2 2v8c0 1.1 0.9 2 2 2s2-0.9 2-2v-8c0-1.1-0.9-2-2-2zM4 12c-1.1 0-2 0.9-2 2v8c0 1.1 0.9 2 2 2s2-0.9 2-2v-8c0-1.1-0.9-2-2-2zM7 23c0 1.657 1.343 3 3 3v0 4c0 1.1 0.9 2 2 2s2-0.9 2-2v-4h4v4c0 1.1 0.9 2 2 2s2-0.9 2-2v-4c1.657 0 3-1.343 3-3v-11h-18v11z"/> <path d="M24.944 10c-0.304-2.746-1.844-5.119-4.051-6.551l1.001-2.001c0.247-0.494 0.047-1.095-0.447-1.342s-1.095-0.047-1.342 0.447l-1.004 2.009-0.261-0.104c-0.893-0.297-1.848-0.458-2.84-0.458s-1.947 0.161-2.84 0.458l-0.261 0.104-1.004-2.009c-0.247-0.494-0.848-0.694-1.342-0.447s-0.694 0.848-0.447 1.342l1.001 2.001c-2.207 1.433-3.747 3.805-4.051 6.551v1h17.944v-1h-0.056zM13 8c-0.552 0-1-0.448-1-1s0.447-0.999 0.998-1c0.001 0 0.002 0 0.003 0s0.001-0 0.002-0c0.551 0.001 0.998 0.448 0.998 1s-0.448 1-1 1zM19 8c-0.552 0-1-0.448-1-1s0.446-0.999 0.998-1c0 0 0.001 0 0.002 0s0.002-0 0.003-0c0.551 0.001 0.998 0.448 0.998 1s-0.448 1-1 1z"/> </symbol><symbol viewBox="0 0 32 32" id="icon-apple"><title>apple</title> <path d="M24.734 17.003c-0.040-4.053 3.305-5.996 3.454-6.093-1.88-2.751-4.808-3.127-5.851-3.171-2.492-0.252-4.862 1.467-6.127 1.467-1.261 0-3.213-1.43-5.28-1.392-2.716 0.040-5.221 1.579-6.619 4.012-2.822 4.897-0.723 12.151 2.028 16.123 1.344 1.944 2.947 4.127 5.051 4.049 2.026-0.081 2.793-1.311 5.242-1.311s3.138 1.311 5.283 1.271c2.18-0.041 3.562-1.981 4.897-3.931 1.543-2.255 2.179-4.439 2.216-4.551-0.048-0.022-4.252-1.632-4.294-6.473zM20.705 5.11c1.117-1.355 1.871-3.235 1.665-5.11-1.609 0.066-3.559 1.072-4.713 2.423-1.036 1.199-1.942 3.113-1.699 4.951 1.796 0.14 3.629-0.913 4.747-2.264z"/> </symbol><symbol viewBox="0 0 32 32" id="icon-droplet"><title>droplet</title> <path d="M27.020 14.786c-2.055-5.732-6.41-10.88-11.020-14.786-4.61 3.907-8.965 9.054-11.020 14.786-1.271 3.545-1.396 7.393 0.393 10.794 2.058 3.911 6.207 6.42 10.626 6.42s8.569-2.509 10.626-6.42c1.79-3.401 1.664-7.249 0.393-10.794zM23.086 23.717c-1.369 2.602-4.15 4.283-7.086 4.283-1.723 0-3.391-0.579-4.753-1.583 0.414 0.054 0.832 0.083 1.254 0.083 3.67 0 7.146-2.1 8.856-5.351 1.402-2.665 1.281-5.433 0.746-7.636 0.455 0.88 0.841 1.756 1.151 2.623 0.706 1.971 1.251 4.886-0.168 7.581z"/> </symbol><symbol viewBox="0 0 32 32" id="icon-location"><title>location</title> <path d="M16 0c-5.523 0-10 4.477-10 10 0 10 10 22 10 22s10-12 10-22c0-5.523-4.477-10-10-10zM16 16c-3.314 0-6-2.686-6-6s2.686-6 6-6 6 2.686 6 6-2.686 6-6 6z"/> </symbol><symbol viewBox="0 0 32 32" id="icon-spinner11"><title>spinner11</title> <path d="M32 12h-12l4.485-4.485c-2.267-2.266-5.28-3.515-8.485-3.515s-6.219 1.248-8.485 3.515c-2.266 2.267-3.515 5.28-3.515 8.485s1.248 6.219 3.515 8.485c2.267 2.266 5.28 3.515 8.485 3.515s6.219-1.248 8.485-3.515c0.189-0.189 0.371-0.384 0.546-0.583l3.010 2.634c-2.933 3.349-7.239 5.464-12.041 5.464-8.837 0-16-7.163-16-16s7.163-16 16-16c4.418 0 8.418 1.791 11.313 4.687l4.687-4.687v12z"/> </symbol><symbol viewBox="0 0 32 32" id="icon-tab"><title>tab</title> <path d="M30 0h2v16h-2v-16z"/> <path d="M0 16h2v16h-2v-16z"/> <path d="M10 22h22v4h-22v5l-7-7 7-7v5z"/> <path d="M22 10h-22v-4h22v-5l7 7-7 7z"/> </symbol><symbol viewBox="0 0 32 32" id="icon-windows8"><title>windows8</title> <path d="M0.011 16l-0.011-9.752 12-1.63v11.382zM14 4.328l15.996-2.328v14h-15.996zM30 18l-0.004 14-15.996-2.25v-11.75zM12 29.495l-11.99-1.644-0.001-9.851h11.991z" fill="#444444"/> </symbol><symbol viewBox="0 0 32 32" id="icon-wrench"><title>wrench</title> <path d="M31.342 25.559l-14.392-12.336c0.67-1.259 1.051-2.696 1.051-4.222 0-4.971-4.029-9-9-9-0.909 0-1.787 0.135-2.614 0.386l5.2 5.2c0.778 0.778 0.778 2.051 0 2.828l-3.172 3.172c-0.778 0.778-2.051 0.778-2.828 0l-5.2-5.2c-0.251 0.827-0.386 1.705-0.386 2.614 0 4.971 4.029 9 9 9 1.526 0 2.963-0.38 4.222-1.051l12.336 14.392c0.716 0.835 1.938 0.882 2.716 0.104l3.172-3.172c0.778-0.778 0.731-2-0.104-2.716z"/> </symbol></svg>