<?xml version="1.0" encoding="utf-8"?>
<!-- Generator: Adobe Illustrator 17.0.0, SVG Export Plug-In . SVG Version: 6.00 Build 0)  -->
<!DOCTYPE svg PUBLIC "-//W3C//DTD SVG 1.1//EN" "http://www.w3.org/Graphics/SVG/1.1/DTD/svg11.dtd">
<svg version="1.1" id="Layer_1" xmlns="http://www.w3.org/2000/svg" xmlns:xlink="http://www.w3.org/1999/xlink" x="0px" y="0px"
	 width="232.161px" height="311.5px" viewBox="0 0 232.161 311.5" enable-background="new 0 0 232.161 311.5" xml:space="preserve">
<path fill="#E3E2E2" d="M50.958,64.062c-1.347,0-2.438-0.896-2.438-2v-9.333c0-1.104,1.091-2,2.438-2"/>
<path fill="#2E3191" d="M117.329,245.562"/>
<path fill="#FFFFFF" d="M184.662,279.738c0,10.856-10.578,19.657-23.626,19.657H73.623c-13.049,0-23.626-8.801-23.626-19.657V32.386
	c0-10.856,10.577-19.657,23.626-19.657h87.413c13.048,0,23.626,8.801,23.626,19.657V279.738z"/>
<path fill="#E3E2E2" d="M175.646,259.183c0,0.303-0.244,0.547-0.547,0.547H59.56c-0.303,0-0.547-0.244-0.547-0.547V53.251
	c0-0.302,0.244-0.547,0.547-0.547H175.1c0.303,0,0.547,0.245,0.547,0.547V259.183z"/>
<path fill="#E3E2E2" d="M129.329,36.73c0,1.289-1.045,2.333-2.334,2.333h-19.332c-1.289,0-2.334-1.045-2.334-2.333l0,0
	c0-1.289,1.045-2.333,2.334-2.333h19.332C128.284,34.396,129.329,35.441,129.329,36.73L129.329,36.73z"/>
<path fill="#E3E2E2" d="M119.82,25.222c0,1.376-1.115,2.491-2.491,2.491l0,0c-1.376,0-2.491-1.115-2.491-2.491l0,0
	c0-1.377,1.115-2.492,2.491-2.492l0,0C118.705,22.73,119.82,23.845,119.82,25.222L119.82,25.222z"/>
<circle fill="#F4F4F4" cx="117.33" cy="279.062" r="10.479"/>
<path fill="#E3E2E2" d="M140.322,12.565c0-1.035,1.343-1.875,3-1.875h16c1.657,0,3,0.839,3,1.875"/>
<path fill="#E3E2E2" d="M49.966,88.396c-1.631,0-2.953-0.896-2.953-2v-6c0-1.104,1.322-2,2.953-2"/>
<path fill="#E3E2E2" d="M49.965,112.396c-1.63,0-2.952-0.896-2.952-2v-6c0-1.104,1.322-2,2.952-2"/>
<path fill="#E3E2E2" d="M100.486,36.555c0,1.192-0.966,2.158-2.157,2.158l0,0c-1.192,0-2.158-0.966-2.158-2.158l0,0
	c0-1.192,0.966-2.158,2.158-2.158l0,0C99.52,34.397,100.486,35.363,100.486,36.555L100.486,36.555z"/>
<g id="Shape_1">
	<g>
		<path fill-rule="evenodd" clip-rule="evenodd" fill="#FFFFFF" d="M155.65,241.569c1.79,1.084,3.354,1.549,3.493,1.039
			c0.139-0.51-1.198-1.802-2.988-2.886c-1.79-1.084-3.354-1.55-3.493-1.04C152.522,239.193,153.86,240.485,155.65,241.569z
			 M160.887,243.244c0.502-0.106,0.961-1.027,1.025-2.055c0.064-1.029-0.291-1.776-0.793-1.669c-0.502,0.106-0.96,1.027-1.025,2.055
			C160.031,242.604,160.385,243.351,160.887,243.244z M125.633,246.939c-0.057,0-0.118-0.007-0.182-0.022
			c-0.064-0.014-0.139-0.036-0.225-0.065c-0.742-0.16-1.114-0.357-1.114-0.591c0-0.175,0.064-0.306,0.193-0.394
			c0.143-0.088,0.357-0.131,0.642-0.131c0.3,0,0.535,0.065,0.707,0.197c0.057,0.058,0.114,0.117,0.171,0.175
			c0.143,0.248,0.35,0.372,0.621,0.372h0.921c-0.029-0.583-0.25-1.057-0.664-1.422c-0.443-0.335-1.035-0.503-1.778-0.503
			c-0.685,0-1.242,0.168-1.67,0.503c-0.414,0.365-0.621,0.824-0.621,1.378c0,0.438,0.142,0.788,0.428,1.05
			c0.257,0.263,0.764,0.489,1.521,0.678c0.129,0.044,0.321,0.087,0.578,0.131c0.6,0.131,0.899,0.328,0.899,0.591
			c0,0.175-0.086,0.314-0.257,0.416c-0.186,0.102-0.407,0.153-0.664,0.153c-0.357,0-0.642-0.073-0.857-0.219
			c-0.2-0.146-0.307-0.365-0.321-0.656h-1.456v0.066c0,0.642,0.207,1.13,0.621,1.466c0.4,0.336,1.007,0.503,1.82,0.503
			c0.857,0,1.499-0.16,1.927-0.481c0.457-0.35,0.685-0.846,0.685-1.488c0-0.438-0.136-0.788-0.407-1.05
			C126.868,247.348,126.362,247.129,125.633,246.939z M131.964,244.971c-0.4-0.277-1-0.416-1.799-0.416
			c-0.714,0-1.263,0.168-1.649,0.503c-0.343,0.292-0.543,0.664-0.6,1.116h1.435c0.071-0.16,0.185-0.27,0.343-0.328
			c0.157-0.058,0.335-0.088,0.535-0.088c0.185,0,0.389,0.033,0.61,0.098c0.221,0.066,0.332,0.208,0.332,0.427
			c0,0.292-0.314,0.481-0.942,0.569c-0.129,0.015-0.243,0.033-0.343,0.055c-0.1,0.022-0.186,0.033-0.257,0.033
			c-0.543,0.087-0.989,0.262-1.339,0.525c-0.35,0.263-0.525,0.7-0.525,1.312c0,0.656,0.193,1.127,0.578,1.411
			c0.386,0.284,0.835,0.426,1.349,0.426c0.257,0,0.553-0.018,0.889-0.055c0.335-0.036,0.653-0.135,0.953-0.295
			c0.285-0.146,0.532-0.383,0.739-0.711c0.207-0.328,0.311-0.784,0.311-1.367v-1.991
			C132.585,245.67,132.378,245.262,131.964,244.971z M131.193,248.121c0,0.409-0.114,0.729-0.343,0.962
			c-0.229,0.233-0.543,0.35-0.942,0.35c-0.243,0-0.428-0.058-0.557-0.175c-0.129-0.131-0.193-0.306-0.193-0.525
			c0-0.16,0.05-0.321,0.15-0.481c0.114-0.117,0.3-0.211,0.557-0.285l0.492-0.109c0.357-0.088,0.635-0.182,0.835-0.284V248.121z
			 M136.764,244.763c-0.364-0.138-0.725-0.208-1.081-0.208c-0.685,0-1.321,0.186-1.906,0.558c-0.586,0.372-0.878,1.068-0.878,2.089
			v5.447h0.728c0.2,0,0.371-0.073,0.514-0.219c0.143-0.146,0.214-0.321,0.214-0.525v-2.166c0.171,0.306,0.4,0.532,0.685,0.678
			c0.271,0.131,0.585,0.197,0.942,0.197c0.671,0,1.221-0.277,1.649-0.831c0.428-0.569,0.642-1.312,0.642-2.232
			c0-0.889-0.214-1.619-0.642-2.188C137.417,245.102,137.128,244.901,136.764,244.763z M136.474,248.864
			c-0.214,0.306-0.507,0.46-0.878,0.46c-0.4,0-0.707-0.153-0.921-0.46c-0.214-0.277-0.321-0.693-0.321-1.247
			c0-0.598,0.1-1.036,0.3-1.313c0.214-0.306,0.514-0.459,0.899-0.459c0.4,0,0.707,0.153,0.921,0.459
			c0.214,0.306,0.321,0.744,0.321,1.313C136.796,248.142,136.689,248.558,136.474,248.864z M142.506,244.763
			c-0.364-0.138-0.725-0.208-1.082-0.208c-0.685,0-1.321,0.186-1.906,0.558c-0.586,0.372-0.878,1.068-0.878,2.089v5.447h0.728
			c0.2,0,0.371-0.073,0.514-0.219c0.142-0.146,0.214-0.321,0.214-0.525v-2.166c0.171,0.306,0.4,0.532,0.685,0.678
			c0.271,0.131,0.585,0.197,0.942,0.197c0.671,0,1.221-0.277,1.649-0.831c0.428-0.569,0.642-1.312,0.642-2.232
			c0-0.889-0.214-1.619-0.642-2.188C143.159,245.102,142.87,244.901,142.506,244.763z M142.217,248.864
			c-0.214,0.306-0.507,0.46-0.878,0.46c-0.4,0-0.707-0.153-0.921-0.46c-0.214-0.277-0.321-0.693-0.321-1.247
			c0-0.598,0.1-1.036,0.3-1.313c0.214-0.306,0.514-0.459,0.899-0.459c0.4,0,0.707,0.153,0.921,0.459
			c0.214,0.306,0.321,0.744,0.321,1.313C142.538,248.142,142.431,248.558,142.217,248.864z M147.38,246.939
			c-0.057,0-0.118-0.007-0.182-0.022c-0.064-0.014-0.139-0.036-0.225-0.065c-0.742-0.16-1.114-0.357-1.114-0.591
			c0-0.175,0.064-0.306,0.193-0.394c0.143-0.088,0.357-0.131,0.642-0.131c0.3,0,0.536,0.065,0.707,0.197
			c0.057,0.058,0.114,0.117,0.171,0.175c0.143,0.248,0.35,0.372,0.621,0.372h0.921c-0.029-0.583-0.25-1.057-0.664-1.422
			c-0.443-0.335-1.035-0.503-1.778-0.503c-0.685,0-1.242,0.168-1.67,0.503c-0.414,0.365-0.621,0.824-0.621,1.378
			c0,0.438,0.142,0.788,0.428,1.05c0.257,0.263,0.764,0.489,1.521,0.678c0.129,0.044,0.321,0.087,0.578,0.131
			c0.6,0.131,0.899,0.328,0.899,0.591c0,0.175-0.086,0.314-0.257,0.416c-0.186,0.102-0.407,0.153-0.664,0.153
			c-0.357,0-0.642-0.073-0.857-0.219c-0.2-0.146-0.307-0.365-0.321-0.656h-1.456v0.066c0,0.642,0.207,1.13,0.621,1.466
			c0.4,0.336,1.007,0.503,1.82,0.503c0.857,0,1.499-0.16,1.927-0.481c0.457-0.35,0.685-0.846,0.685-1.488
			c0-0.438-0.136-0.788-0.407-1.05C148.615,247.348,148.108,247.129,147.38,246.939z M153.347,244.905
			c-0.136,0.146-0.204,0.321-0.204,0.525v2.975c0,0.35-0.104,0.605-0.31,0.766c-0.207,0.161-0.439,0.241-0.696,0.241
			c-0.257,0-0.486-0.08-0.685-0.241c-0.2-0.16-0.3-0.416-0.3-0.766v-3.719h-1.499v3.413c0,1.006,0.253,1.67,0.76,1.991
			c0.507,0.321,1.067,0.495,1.681,0.525c0.628,0,1.206-0.16,1.735-0.481c0.528-0.321,0.792-0.999,0.792-2.035v-3.413h-0.75
			C153.658,244.686,153.483,244.759,153.347,244.905z M162.633,245.058c-0.528-0.335-1.107-0.503-1.735-0.503
			c-0.314,0.015-0.618,0.062-0.91,0.142s-0.546,0.215-0.76,0.405c-0.257-0.219-0.543-0.365-0.857-0.438
			c-0.314-0.073-0.636-0.109-0.964-0.109c-0.614,0.03-1.175,0.212-1.681,0.547c-0.507,0.336-0.76,0.999-0.76,1.991v3.413h1.499
			v-3.719c0-0.35,0.1-0.605,0.3-0.766c0.2-0.16,0.428-0.241,0.685-0.241c0.257,0,0.489,0.08,0.696,0.241
			c0.207,0.161,0.311,0.416,0.311,0.766v3.719h1.478v-3.719c0-0.35,0.103-0.605,0.31-0.766c0.207-0.16,0.439-0.241,0.696-0.241
			s0.489,0.08,0.696,0.241c0.207,0.161,0.311,0.416,0.311,0.766v2.975c0,0.219,0.068,0.398,0.204,0.536
			c0.135,0.139,0.31,0.208,0.525,0.208h0.75v-3.413C163.426,246.072,163.161,245.394,162.633,245.058z M168.011,244.971
			c-0.4-0.277-1-0.416-1.799-0.416c-0.714,0-1.264,0.168-1.649,0.503c-0.343,0.292-0.543,0.664-0.6,1.116h1.435
			c0.071-0.16,0.185-0.27,0.343-0.328c0.157-0.058,0.335-0.088,0.535-0.088c0.185,0,0.389,0.033,0.61,0.098
			c0.221,0.066,0.332,0.208,0.332,0.427c0,0.292-0.314,0.481-0.942,0.569c-0.129,0.015-0.243,0.033-0.343,0.055
			c-0.1,0.022-0.186,0.033-0.257,0.033c-0.543,0.087-0.989,0.262-1.338,0.525c-0.35,0.263-0.525,0.7-0.525,1.312
			c0,0.656,0.193,1.127,0.578,1.411c0.386,0.284,0.835,0.426,1.349,0.426c0.257,0,0.553-0.018,0.889-0.055
			c0.335-0.036,0.653-0.135,0.953-0.295c0.285-0.146,0.532-0.383,0.739-0.711c0.207-0.328,0.31-0.784,0.31-1.367v-1.991
			C168.632,245.67,168.425,245.262,168.011,244.971z M167.24,248.121c0,0.409-0.114,0.729-0.343,0.962
			c-0.229,0.233-0.543,0.35-0.942,0.35c-0.243,0-0.428-0.058-0.557-0.175c-0.129-0.131-0.193-0.306-0.193-0.525
			c0-0.16,0.05-0.321,0.15-0.481c0.114-0.117,0.3-0.211,0.557-0.285l0.493-0.109c0.357-0.088,0.635-0.182,0.835-0.284V248.121z
			 M167.691,242.626c0.31,0,0.549-0.244,0.549-0.554c0-0.304-0.238-0.547-0.549-0.547c-0.307,0-0.552,0.244-0.552,0.547
			C167.139,242.383,167.384,242.626,167.691,242.626z M167.691,241.635c0.239,0,0.412,0.197,0.412,0.441
			c0,0.24-0.173,0.434-0.408,0.434c-0.242,0-0.418-0.194-0.418-0.437C167.276,241.832,167.453,241.635,167.691,241.635z
			 M167.606,242.139h0.059c0.069,0,0.101,0.027,0.111,0.087c0.017,0.063,0.026,0.113,0.043,0.133h0.134
			c-0.013-0.02-0.023-0.053-0.039-0.137c-0.016-0.073-0.046-0.113-0.098-0.133v-0.007c0.065-0.02,0.111-0.067,0.111-0.127
			c0-0.053-0.023-0.097-0.052-0.12c-0.039-0.023-0.085-0.04-0.186-0.04c-0.088,0-0.157,0.007-0.206,0.017v0.547h0.124V242.139z
			 M167.609,241.892c0.013-0.003,0.036-0.007,0.069-0.007c0.078,0,0.114,0.034,0.114,0.084c0,0.057-0.056,0.08-0.124,0.08h-0.059
			V241.892z"/>
	</g>
</g>
<path fill="#FF4867" d="M90.115,89.34c-2.039,0-3.933,0.993-5.071,2.659l-0.235,0.299l-0.157-0.2
	c-1.126-1.728-3.023-2.758-5.083-2.758c-3.515,0-6.066,2.551-6.066,6.065c0,5.189,9.393,12.836,10.078,13.387
	c0.324,0.309,0.747,0.479,1.195,0.479c0.449,0,0.872-0.17,1.196-0.479c0.687-0.554,10.208-8.322,10.208-13.386
	C96.18,91.891,93.629,89.34,90.115,89.34z"/>
<path fill="#FF4867" d="M121.438,89.34c-2.039,0-3.933,0.993-5.071,2.659l-0.235,0.299l-0.157-0.2
	c-1.126-1.728-3.023-2.758-5.083-2.758c-3.515,0-6.066,2.551-6.066,6.065c0,5.189,9.393,12.836,10.078,13.387
	c0.324,0.309,0.747,0.479,1.195,0.479c0.449,0,0.872-0.17,1.196-0.479c0.687-0.554,10.208-8.322,10.208-13.386
	C127.503,91.891,124.952,89.34,121.438,89.34z"/>
<path fill="#FF4867" d="M153.115,89.34c-2.039,0-3.933,0.993-5.071,2.659l-0.235,0.299l-0.157-0.2
	c-1.126-1.728-3.023-2.758-5.083-2.758c-3.515,0-6.066,2.551-6.066,6.065c0,5.189,9.393,12.836,10.078,13.387
	c0.324,0.309,0.747,0.479,1.195,0.479c0.449,0,0.872-0.17,1.196-0.479c0.687-0.554,10.208-8.322,10.208-13.386
	C159.18,91.891,156.629,89.34,153.115,89.34z"/>
<path fill="#FF4867" d="M90.115,118.271c-2.039,0-3.933,0.993-5.071,2.659l-0.235,0.299l-0.157-0.2
	c-1.126-1.728-3.023-2.758-5.083-2.758c-3.515,0-6.066,2.551-6.066,6.065c0,5.189,9.393,12.836,10.078,13.386
	c0.324,0.309,0.747,0.479,1.195,0.479c0.449,0,0.872-0.17,1.196-0.479c0.687-0.554,10.208-8.322,10.208-13.386
	C96.18,120.822,93.629,118.271,90.115,118.271z"/>
<path fill="#FF4867" d="M121.438,118.271c-2.039,0-3.933,0.993-5.071,2.659l-0.235,0.299l-0.157-0.2
	c-1.126-1.728-3.023-2.758-5.083-2.758c-3.515,0-6.066,2.551-6.066,6.065c0,5.189,9.393,12.836,10.078,13.386
	c0.324,0.309,0.747,0.479,1.195,0.479c0.449,0,0.872-0.17,1.196-0.479c0.687-0.554,10.208-8.322,10.208-13.386
	C127.503,120.822,124.952,118.271,121.438,118.271z"/>
<path fill="#FF4867" d="M153.115,118.271c-2.039,0-3.933,0.993-5.071,2.659l-0.235,0.299l-0.157-0.2
	c-1.126-1.728-3.023-2.758-5.083-2.758c-3.515,0-6.066,2.551-6.066,6.065c0,5.189,9.393,12.836,10.078,13.386
	c0.324,0.309,0.747,0.479,1.195,0.479c0.449,0,0.872-0.17,1.196-0.479c0.687-0.554,10.208-8.322,10.208-13.386
	C159.18,120.822,156.629,118.271,153.115,118.271z"/>
<path fill="#FF4867" d="M90.115,145.271c-2.039,0-3.933,0.993-5.071,2.659l-0.235,0.299l-0.157-0.2
	c-1.126-1.728-3.023-2.758-5.083-2.758c-3.515,0-6.066,2.551-6.066,6.065c0,5.189,9.393,12.836,10.078,13.387
	c0.324,0.309,0.747,0.479,1.195,0.479c0.449,0,0.872-0.17,1.196-0.479c0.687-0.554,10.208-8.322,10.208-13.386
	C96.18,147.822,93.629,145.271,90.115,145.271z"/>
<path fill="#FFFFFF" d="M121.438,145.271c-2.039,0-3.933,0.993-5.071,2.659l-0.235,0.299l-0.157-0.2
	c-1.126-1.728-3.023-2.758-5.083-2.758c-3.515,0-6.066,2.551-6.066,6.065c0,5.189,9.393,12.836,10.078,13.387
	c0.324,0.309,0.747,0.479,1.195,0.479c0.449,0,0.872-0.17,1.196-0.479c0.687-0.554,10.208-8.322,10.208-13.386
	C127.503,147.822,124.952,145.271,121.438,145.271z"/>
<path fill="#FFFFFF" d="M153.115,145.271c-2.039,0-3.933,0.993-5.071,2.659l-0.235,0.299l-0.157-0.2
	c-1.126-1.728-3.023-2.758-5.083-2.758c-3.515,0-6.066,2.551-6.066,6.065c0,5.189,9.393,12.836,10.078,13.387
	c0.324,0.309,0.747,0.479,1.195,0.479c0.449,0,0.872-0.17,1.196-0.479c0.687-0.554,10.208-8.322,10.208-13.386
	C159.18,147.822,156.629,145.271,153.115,145.271z"/>
</svg>
