<?xml version="1.0" encoding="UTF-8" standalone="no"?>
<!-- Created with Inkscape (http://www.inkscape.org/) -->

<svg
   xmlns:dc="http://purl.org/dc/elements/1.1/"
   xmlns:cc="http://creativecommons.org/ns#"
   xmlns:rdf="http://www.w3.org/1999/02/22-rdf-syntax-ns#"
   xmlns:svg="http://www.w3.org/2000/svg"
   xmlns="http://www.w3.org/2000/svg"
   version="1.1"
   width="636"
   height="120"
   id="svg3265">
  <defs
     id="defs3267">
    <clipPath
       id="clipPath3001">
      <path
         d="m 0,841.89 595.28,0 L 595.28,0 0,0 0,841.89 z"
         id="path3003" />
    </clipPath>
  </defs>
  <metadata
     id="metadata3270">
    <rdf:RDF>
      <cc:Work
         rdf:about="">
        <dc:format>image/svg+xml</dc:format>
        <dc:type
           rdf:resource="http://purl.org/dc/dcmitype/StillImage" />
        <dc:title></dc:title>
      </cc:Work>
    </rdf:RDF>
  </metadata>
  <g
     transform="translate(0,-932.36218)"
     id="layer1">
    <g
       transform="matrix(1.2465772,0,0,-1.2465771,-43.669469,1338.9786)"
       id="g2997">
      <g
         clip-path="url(#clipPath3001)"
         id="g2999">
        <g
           transform="translate(88.3555,272.8613)"
           id="g3005">
          <path
             d="m 0,0 -40.032,0.001 c -7.329,0 -13.292,5.963 -13.292,13.292 l 0,26.739 c 0,7.33 5.963,13.293 13.292,13.293 l 26.74,0 C -5.962,53.325 0,47.362 0,40.032 L 0,0 z"
             id="path3007"
             style="fill:#ffffff;fill-opacity:1;fill-rule:nonzero;stroke:none" />
        </g>
        <g
           transform="translate(59.5859,301.9424)"
           id="g3009">
          <path
             d="m 0,0 -10.167,0 c -1.754,0 -3.176,1.422 -3.176,3.178 l 0,6.987 c 0,1.757 1.422,3.179 3.176,3.179 l 6.989,0 C -1.423,13.344 0,11.922 0,10.165 L 0,0 z"
             id="path3011"
             style="fill:#53ae7a;fill-opacity:1;fill-rule:nonzero;stroke:none" />
        </g>
        <g
           transform="translate(59.5859,297.499)"
           id="g3013">
          <path
             d="m 0,0 -10.167,0 c -1.754,0 -3.176,-1.424 -3.176,-3.18 l 0,-6.986 c 0,-1.756 1.422,-3.18 3.176,-3.18 l 6.989,0 c 1.755,0 3.178,1.424 3.178,3.18 L 0,0 z"
             id="path3015"
             style="fill:#5374a5;fill-opacity:1;fill-rule:nonzero;stroke:none" />
        </g>
        <g
           transform="translate(63.8027,297.4971)"
           id="g3017">
          <path
             d="m 0,0 10.167,0 c 1.753,0 3.175,-1.422 3.175,-3.178 l 0,-6.988 c 0,-1.756 -1.422,-3.178 -3.175,-3.178 l -6.99,0 C 1.422,-13.344 0,-11.922 0,-10.166 L 0,0 z"
             id="path3019"
             style="fill:#5374a5;fill-opacity:1;fill-rule:nonzero;stroke:none" />
        </g>
        <g
           transform="translate(63.8027,301.9424)"
           id="g3021">
          <path
             d="m 0,0 10.167,0 c 1.753,0 3.175,1.422 3.175,3.178 l 0,6.987 c 0,1.756 -1.422,3.179 -3.175,3.179 l -6.99,0 C 1.422,13.344 0,11.921 0,10.165 L 0,0 z"
             id="path3023"
             style="fill:#5374a5;fill-opacity:1;fill-rule:nonzero;stroke:none" />
        </g>
        <g
           transform="translate(184.7285,300.7607)"
           id="g3025">
          <path
             d="m 0,0 12.138,-35.221 0.896,0 L 23.082,0 39.001,0 17.412,-62.58 c -2.189,-6.068 -5.871,-8.258 -13.233,-8.258 -4.477,0 -8.855,0.299 -13.232,0.696 l 0,11.54 10.247,0 c 1.393,0 1.99,0.498 2.488,1.891 L 4.677,-53.824 -16.615,0 0,0 z"
             id="path3027"
             style="fill:#ffffff;fill-opacity:1;fill-rule:nonzero;stroke:none" />
        </g>
        <g
           transform="translate(228.897,246.04)"
           id="g3029">
          <path
             d="m 0,0 0,54.721 15.223,0 0,-7.263 c 7.063,6.367 9.252,7.362 14.326,7.362 l 6.666,0 c 4.676,0 7.661,-0.995 9.75,-3.084 2.289,-2.189 3.184,-5.075 3.184,-13.132 l 0,-38.604 -15.222,0 0,36.813 c 0,2.288 -0.398,3.58 -1.194,4.476 -0.896,0.897 -1.891,1.193 -4.577,1.193 l -4.278,0 c -2.586,0 -4.974,-0.596 -8.655,-2.288 L 15.223,0 0,0 z"
             id="path3031"
             style="fill:#ffffff;fill-opacity:1;fill-rule:nonzero;stroke:none" />
        </g>
        <g
           transform="translate(319.9336,248.1299)"
           id="g3033">
          <path
             d="m 0,0 -5.38,-1.393 c -2.388,-0.597 -6.467,-1.194 -10.545,-1.194 -5.174,0 -7.96,1.095 -9.85,2.983 -1.79,1.792 -2.487,4.28 -2.487,9.851 l 0,30.445 -8.457,0 0,11.939 8.457,0 0,13.629 15.322,0 0,-13.629 13.038,0 0,-11.939 -13.038,0 0,-26.366 c 0,-2.387 0.199,-3.183 0.696,-3.781 0.497,-0.397 1.492,-0.596 3.979,-0.596 L 0,9.949 0,0 z"
             id="path3035"
             style="fill:#ffffff;fill-opacity:1;fill-rule:nonzero;stroke:none" />
        </g>
        <g
           transform="translate(373.207,256.9834)"
           id="g3037">
          <path
             d="m 0,0 0,13.531 -17.312,0 c -6.267,0 -7.76,-0.496 -9.054,-1.791 -1.392,-1.391 -1.79,-2.885 -1.79,-7.261 0,-4.677 0.398,-6.667 1.592,-7.761 1.195,-1.095 2.685,-1.493 5.771,-1.493 l 7.461,0 C -8.557,-4.775 -5.77,-3.68 0,0 m -29.848,39.399 c 2.191,2.189 4.776,2.886 9.75,2.886 l 14.527,0 c 5.871,0 8.257,-0.896 10.05,-2.786 2.288,-2.288 2.784,-5.173 2.784,-12.237 l 0,-38.205 -7.263,0 0,6.765 c -6.565,-5.273 -8.954,-6.865 -14.524,-6.865 l -7.761,0 c -4.876,0 -7.86,0.797 -9.948,2.985 -1.992,1.89 -3.185,4.776 -3.185,11.542 0,6.467 1.193,10.047 3.282,12.137 2.288,2.289 5.075,3.581 15.323,3.581 5.173,0 11.441,-0.397 16.813,-1.292 l 0,8.854 c 0,5.273 -0.496,7.064 -1.493,8.058 -0.894,0.896 -2.089,1.293 -5.57,1.293 l -10.747,0 c -3.481,0 -5.072,-0.297 -6.268,-1.491 -1.193,-1.292 -1.591,-3.284 -1.789,-8.158 l -7.363,0 c 0.199,7.96 1.195,10.645 3.382,12.933"
             id="path3039"
             style="fill:#ffffff;fill-opacity:1;fill-rule:nonzero;stroke:none" />
        </g>
        <g
           transform="translate(401.2578,288.0264)"
           id="g3041">
          <path
             d="m 0,0 0,-30.644 c 5.472,-3.483 8.656,-4.876 13.232,-4.876 l 6.566,0 c 4.279,0 5.971,0.698 7.164,1.891 1.991,1.99 2.487,5.074 2.487,18.307 0,13.133 -0.496,16.316 -2.487,18.207 -1.193,1.294 -2.885,1.89 -7.164,1.89 l -6.764,0 C 8.458,4.775 5.273,3.383 0,0 M 0,11.242 0,4.179 c 7.065,5.77 9.553,7.162 15.123,7.162 l 6.168,0 c 6.068,0 9.055,-0.995 11.343,-3.282 3.083,-3.185 4.179,-7.364 4.179,-23.381 0,-16.118 -1.096,-20.297 -4.179,-23.481 -2.288,-2.287 -5.275,-3.283 -11.343,-3.283 l -6.168,0 c -5.473,0 -8.158,1.394 -15.123,7.164 l 0,-21.988 -7.361,0 0,68.152 7.361,0 z"
             id="path3043"
             style="fill:#ffffff;fill-opacity:1;fill-rule:nonzero;stroke:none" />
        </g>
        <g
           transform="translate(457.2666,288.0264)"
           id="g3045">
          <path
             d="m 0,0 0,-30.644 c 5.471,-3.483 8.655,-4.876 13.231,-4.876 l 6.568,0 c 4.277,0 5.969,0.698 7.162,1.891 1.991,1.99 2.486,5.074 2.486,18.307 0,13.133 -0.495,16.316 -2.486,18.207 -1.193,1.294 -2.885,1.89 -7.162,1.89 l -6.767,0 C 8.456,4.775 5.271,3.383 0,0 M 0,11.242 0,4.179 c 7.063,5.77 9.551,7.162 15.122,7.162 l 6.17,0 c 6.066,0 9.052,-0.995 11.34,-3.282 3.084,-3.185 4.179,-7.364 4.179,-23.381 0,-16.118 -1.095,-20.297 -4.179,-23.481 -2.288,-2.287 -5.274,-3.283 -11.34,-3.283 l -6.17,0 c -5.473,0 -8.158,1.394 -15.122,7.164 l 0,-21.988 -7.362,0 0,68.152 7.362,0 z"
             id="path3047"
             style="fill:#ffffff;fill-opacity:1;fill-rule:nonzero;stroke:none" />
        </g>
        <g
           transform="translate(542.623,248.4277)"
           id="g3049">
          <path
             d="m 0,0 c -1.689,-1.69 -3.979,-2.388 -7.858,-2.388 l -19.502,0 c -4.078,0 -6.963,0.797 -8.455,2.288 -2.289,2.288 -2.986,4.478 -3.084,13.83 l 6.764,0 c 0.198,-6.467 0.596,-7.76 1.593,-8.754 0.695,-0.698 1.691,-1.196 4.476,-1.196 l 16.515,0 c 2.39,0 3.483,0.399 4.378,1.295 0.796,0.795 1.493,2.089 1.493,7.164 0,4.576 -0.499,5.968 -1.294,6.665 -0.695,0.796 -1.691,1.293 -5.072,1.492 l -16.914,1.691 c -4.876,0.498 -7.065,1.195 -8.556,2.687 -1.991,1.99 -2.688,4.577 -2.688,11.442 0,6.666 1.095,10.049 3.284,12.236 1.692,1.692 3.88,2.389 7.859,2.389 l 18.407,0 c 4.277,0 6.666,-0.797 8.158,-2.288 2.09,-2.089 2.985,-4.576 3.084,-13.433 l -6.767,0 c -0.198,6.269 -0.694,7.462 -1.591,8.358 -0.697,0.697 -1.79,1.193 -4.475,1.193 l -15.225,0 c -2.187,0 -3.381,-0.398 -4.178,-1.193 -0.894,-0.896 -1.591,-2.288 -1.591,-6.865 0,-4.278 0.3,-5.571 1.193,-6.367 0.798,-0.895 1.692,-1.293 5.176,-1.593 l 17.112,-1.691 c 4.873,-0.398 7.064,-1.193 8.455,-2.586 1.991,-1.99 2.588,-5.074 2.588,-11.74 C 3.285,5.373 2.288,2.288 0,0"
             id="path3051"
             style="fill:#ffffff;fill-opacity:1;fill-rule:nonzero;stroke:none" />
        </g>
        <g
           transform="translate(163.6455,300.6533)"
           id="g3053">
          <path
             d="M 0,0 -1.148,0 -17.44,0 c -3.032,0 -3.962,-1.295 -4.62,-3.684 l -8.023,-28.906 -8.3,28.918 C -39.133,-0.964 -40.341,0 -43,0 l -16.517,0 -1.149,0 0,-1.148 0,-52.317 0,-1.148 1.149,0 11.434,0 1.148,0 0,1.148 0,33.699 9.486,-31.34 c 0.662,-2.32 1.502,-3.507 4.238,-3.507 l 5.382,0 c 2.646,0 3.473,1.125 4.232,3.488 l 9.491,31.243 0,-33.583 0,-1.148 1.148,0 11.81,0 1.148,0 0,1.148 L 0,-1.148 0,0 z"
             id="path3055"
             style="fill:#ffffff;fill-opacity:1;fill-rule:nonzero;stroke:none" />
        </g>
      </g>
    </g>
  </g>
</svg>
